<svg width="48" height="48" viewBox="0 0 48 48" fill="none" xmlns="http://www.w3.org/2000/svg">
<g clip-path="url(#clip0_1267_81)">
<path d="M43.584 37.407C42.884 39.037 42.02 40.592 41.004 42.047C39.646 43.982 38.535 45.321 37.679 46.065C36.352 47.285 34.929 47.911 33.406 47.946C32.313 47.946 30.995 47.635 29.46 47.004C27.92 46.376 26.505 46.064 25.211 46.064C23.854 46.064 22.399 46.376 20.842 47.004C19.283 47.634 18.027 47.964 17.067 47.996C15.607 48.059 14.151 47.416 12.697 46.065C11.77 45.255 10.611 43.869 9.221 41.905C7.73 39.807 6.504 37.375 5.544 34.601C4.516 31.606 4 28.705 4 25.897C4 22.68 4.695 19.906 6.087 17.581C7.182 15.713 8.637 14.241 10.459 13.159C12.247 12.089 14.286 11.514 16.369 11.491C17.529 11.491 19.05 11.85 20.941 12.555C22.826 13.262 24.036 13.621 24.567 13.621C24.963 13.621 26.308 13.201 28.587 12.365C30.743 11.589 32.562 11.268 34.052 11.395C38.091 11.721 41.125 13.313 43.142 16.181C39.531 18.369 37.744 21.434 37.78 25.366C37.812 28.429 38.923 30.978 41.107 33.001C42.072 33.925 43.199 34.664 44.431 35.182C44.173 35.933 43.891 36.675 43.584 37.407ZM34.322 0.961C34.322 3.361 33.445 5.603 31.697 7.677C29.587 10.144 27.036 11.569 24.269 11.344C24.232 11.042 24.213 10.738 24.213 10.434C24.213 8.13 25.216 5.664 26.998 3.647C27.888 2.626 29.018 1.777 30.39 1.1C31.76 0.433 33.054 0.064 34.272 0C34.307 0.321 34.322 0.642 34.322 0.96V0.961Z" fill="white"/>
</g>
<defs>
<clipPath id="clip0_1267_81">
<rect width="48" height="48" fill="white"/>
</clipPath>
</defs>
</svg>
