<svg width="48" height="48" viewBox="0 0 48 48" fill="none" xmlns="http://www.w3.org/2000/svg">
<g clip-path="url(#clip0_1267_71)">
<path d="M24 19.636V28.931H36.916C36.349 31.92 34.646 34.451 32.094 36.153L39.884 42.196C44.421 38.007 47.039 31.855 47.039 24.546C47.041 22.9 46.895 21.256 46.603 19.636H24Z" fill="white"/>
<path d="M10.55 28.5681L8.79301 29.9131L2.57401 34.7561C6.52401 42.5901 14.617 48.0001 24 48.0001C30.48 48.0001 35.913 45.8621 39.884 42.1961L32.094 36.1531C29.956 37.5931 27.229 38.4661 24 38.4661C17.76 38.4661 12.459 34.2551 10.56 28.5821L10.55 28.5681Z" fill="white"/>
<path d="M2.574 13.244C0.880003 16.576 -0.00199661 20.262 3.39377e-06 24C3.39377e-06 27.883 0.938003 31.527 2.574 34.756C2.574 34.778 10.56 28.56 10.56 28.56C10.061 27.091 9.803 25.551 9.796 24C9.796 22.407 10.08 20.88 10.56 19.44L2.574 13.244ZM24 9.556C27.534 9.556 30.676 10.778 33.185 13.135L40.058 6.262C35.89 2.378 30.48 0 24 0C14.618 0 6.523 5.39 2.574 13.244L10.56 19.44C12.458 13.767 17.76 9.556 24 9.556Z" fill="white"/>
</g>
<defs>
<clipPath id="clip0_1267_71">
<rect width="48" height="48" fill="white"/>
</clipPath>
</defs>
</svg>
