<svg xmlns="http://www.w3.org/2000/svg" width="24" height="25" fill="none" viewBox="0 0 24 25"><g clip-path="url(#clip0_417_472)"><g clip-path="url(#clip1_417_472)"><g clip-path="url(#clip2_417_472)"><path fill="#fff" d="M17.1546 22.3156C18.5191 22.3156 19.807 21.7934 20.7811 20.8453C21.7552 19.8972 22.2917 18.6436 22.2917 17.3156V6.90706C22.2917 5.579 21.7552 4.32547 20.7811 3.37733C19.807 2.42919 18.5191 1.90704 17.1546 1.90704H7.11879C5.75432 1.90704 4.46641 2.42919 3.49228 3.37733C2.51814 4.32547 1.98167 5.579 1.98167 6.90706V17.3156C1.98167 18.6436 2.51814 19.8972 3.49228 20.8453C4.46641 21.7934 5.75432 22.3156 7.11879 22.3156H17.1546ZM17.1546 24.1113H7.11879C3.27864 24.1113 0.136719 21.0532 0.136719 17.3156V6.90706C0.136719 3.16939 3.27864 0.111328 7.11879 0.111328H17.1546C20.9948 0.111328 24.1367 3.16939 24.1367 6.90706V17.3156C24.1367 21.0532 20.9948 24.1113 17.1546 24.1113Z"/><path fill="#fff" d="M12.1415 7.81145C9.75141 7.81145 7.81394 9.69726 7.81394 12.0235C7.81394 14.3498 9.75141 16.2356 12.1415 16.2356C14.5315 16.2356 16.469 14.3498 16.469 12.0235C16.469 9.69726 14.5315 7.81145 12.1415 7.81145ZM18.7821 12.0185C18.7821 15.571 15.8232 18.4509 12.1733 18.4509C8.52335 18.4509 5.56445 15.571 5.56445 12.0185C5.56445 8.46586 8.52335 5.58594 12.1733 5.58594C15.8232 5.58594 18.7821 8.46586 18.7821 12.0185Z"/><path fill="#fff" d="M20.4539 5.48601C20.4539 6.32718 19.7533 7.00914 18.889 7.00914C18.0248 7.00914 17.3242 6.32718 17.3242 5.48601C17.3242 4.64485 18.0248 3.96289 18.889 3.96289C19.7533 3.96289 20.4539 4.64485 20.4539 5.48601Z"/></g></g></g><defs><clipPath id="clip0_417_472"><rect width="24" height="24" fill="#fff" transform="translate(0 0.219727)"/></clipPath><clipPath id="clip1_417_472"><rect width="24" height="24" fill="#fff" transform="translate(0.136719 0.111328)"/></clipPath><clipPath id="clip2_417_472"><rect width="24" height="24" fill="#fff" transform="translate(0.136719 0.111328)"/></clipPath></defs></svg>