<svg width="24" height="25" viewBox="0 0 24 25" fill="none" xmlns="http://www.w3.org/2000/svg">
<g clip-path="url(#clip0_417_462)">
<g clip-path="url(#clip1_417_462)">
<g clip-path="url(#clip2_417_462)">
<path d="M12.1367 0.111328C5.51072 0.111328 0.136719 5.48433 0.136719 12.1113C0.136719 17.4133 3.57472 21.9113 8.34372 23.4983C8.94272 23.6093 9.13672 23.2373 9.13672 22.9213V20.6873C5.79872 21.4133 5.10372 19.2713 5.10372 19.2713C4.55772 17.8843 3.77072 17.5153 3.77072 17.5153C2.68172 16.7703 3.85372 16.7863 3.85372 16.7863C5.05872 16.8703 5.69272 18.0233 5.69272 18.0233C6.76272 19.8573 8.49972 19.3273 9.18472 19.0203C9.29172 18.2453 9.60272 17.7153 9.94672 17.4163C7.28172 17.1113 4.47972 16.0823 4.47972 11.4853C4.47972 10.1743 4.94872 9.10433 5.71572 8.26433C5.59172 7.96133 5.18072 6.74033 5.83272 5.08833C5.83272 5.08833 6.84072 4.76633 9.13372 6.31833C10.0907 6.05233 11.1167 5.91933 12.1367 5.91433C13.1567 5.91933 14.1837 6.05233 15.1427 6.31833C17.4337 4.76633 18.4397 5.08833 18.4397 5.08833C19.0927 6.74133 18.6817 7.96233 18.5577 8.26433C19.3277 9.10433 19.7927 10.1753 19.7927 11.4853C19.7927 16.0943 16.9857 17.1093 14.3137 17.4063C14.7437 17.7783 15.1367 18.5083 15.1367 19.6283V22.9213C15.1367 23.2403 15.3287 23.6153 15.9377 23.4973C20.7027 21.9083 24.1367 17.4113 24.1367 12.1113C24.1367 5.48433 18.7637 0.111328 12.1367 0.111328Z" fill="white"/>
</g>
</g>
</g>
<defs>
<clipPath id="clip0_417_462">
<rect width="24" height="24" fill="white" transform="translate(0 0.219727)"/>
</clipPath>
<clipPath id="clip1_417_462">
<rect width="24" height="24" fill="white" transform="translate(0.136719 0.111328)"/>
</clipPath>
<clipPath id="clip2_417_462">
<rect width="24" height="24" fill="white" transform="translate(0.136719 0.111328)"/>
</clipPath>
</defs>
</svg>
