<svg width="24" height="25" viewBox="0 0 24 25" fill="none" xmlns="http://www.w3.org/2000/svg">
<g clip-path="url(#clip0_417_467)">
<g clip-path="url(#clip1_417_467)">
<g clip-path="url(#clip2_417_467)">
<path d="M22.3367 0.111328H1.93672C0.976719 0.111328 0.136719 0.834902 0.136719 1.79973V22.4229C0.136719 23.3877 0.976719 24.1113 1.93672 24.1113H22.3367C23.2967 24.1113 24.1367 23.3877 24.1367 22.4229V1.79973C24.1367 0.955505 23.2967 0.111328 22.3367 0.111328ZM7.21672 20.7344H3.61672V9.27713H7.21672V20.7344ZM5.41672 7.58866C4.21672 7.58866 3.37672 6.62389 3.37672 5.53846C3.37672 4.45304 4.33672 3.4882 5.41672 3.4882C6.49672 3.4882 7.45672 4.45304 7.45672 5.53846C7.57672 6.7445 6.61672 7.58866 5.41672 7.58866ZM20.5367 20.7344H16.9367V15.1867C16.9367 13.8601 16.9367 12.1716 15.1367 12.1716C13.3367 12.1716 12.9767 13.6189 12.9767 15.1867V20.855H9.37673V9.3977H12.7367V10.9656C13.2167 10.0008 14.4167 9.15656 16.0967 9.15656C19.6967 9.15656 20.4167 11.5686 20.4167 14.5837V20.7344H20.5367Z" fill="white"/>
</g>
</g>
</g>
<defs>
<clipPath id="clip0_417_467">
<rect width="24" height="24" fill="white" transform="translate(0 0.219727)"/>
</clipPath>
<clipPath id="clip1_417_467">
<rect width="24" height="24" fill="white" transform="translate(0.136719 0.111328)"/>
</clipPath>
<clipPath id="clip2_417_467">
<rect width="24" height="24" fill="white" transform="translate(0.136719 0.111328)"/>
</clipPath>
</defs>
</svg>
