<svg width="48" height="48" viewBox="0 0 48 48" fill="none" xmlns="http://www.w3.org/2000/svg">
<g clip-path="url(#clip0_1267_78)">
<path d="M23.927 0C10.713 0 0 10.712 0 23.926C0 37.141 10.713 47.852 23.927 47.852C37.142 47.852 47.853 37.141 47.853 23.926C47.853 10.713 37.142 0.001 23.926 0.001L23.927 0ZM34.899 34.509C34.693 34.847 34.361 35.089 33.976 35.181C33.591 35.274 33.185 35.21 32.848 35.003C27.23 31.571 20.158 30.794 11.829 32.697C11.038 32.852 10.266 32.351 10.087 31.565C9.908 30.778 10.386 29.992 11.166 29.789C20.28 27.705 28.098 28.603 34.405 32.457C35.108 32.889 35.331 33.806 34.899 34.509ZM37.828 27.993C37.57 28.415 37.154 28.717 36.673 28.833C36.191 28.948 35.684 28.868 35.262 28.609C28.831 24.655 19.027 23.509 11.42 25.819C10.434 26.117 9.392 25.561 9.092 24.576C8.794 23.59 9.351 22.549 10.336 22.249C19.026 19.613 29.828 20.89 37.213 25.429C37.635 25.687 37.936 26.103 38.052 26.584C38.167 27.064 38.087 27.571 37.828 27.993ZM38.079 21.209C30.368 16.629 17.645 16.207 10.282 18.442C9.513 18.686 8.673 18.497 8.083 17.948C7.492 17.4 7.242 16.576 7.429 15.791C7.615 15.007 8.209 14.383 8.983 14.159C17.435 11.593 31.485 12.089 40.363 17.359C40.874 17.661 41.244 18.155 41.391 18.73C41.538 19.305 41.45 19.916 41.146 20.426C40.844 20.937 40.35 21.306 39.775 21.453C39.2 21.6 38.59 21.512 38.08 21.209H38.079Z" fill="white"/>
</g>
<defs>
<clipPath id="clip0_1267_78">
<rect width="48" height="48" fill="white"/>
</clipPath>
</defs>
</svg>
